<?xml version="1.0" encoding="utf-8"?>
<!-- Generator: Adobe Illustrator 16.0.0, SVG Export Plug-In . SVG Version: 6.00 Build 0)  -->
<!DOCTYPE svg PUBLIC "-//W3C//DTD SVG 1.1//EN" "http://www.w3.org/Graphics/SVG/1.1/DTD/svg11.dtd">
<svg version="1.1" id="Layer_1" xmlns="http://www.w3.org/2000/svg" xmlns:xlink="http://www.w3.org/1999/xlink" x="0px" y="0px"
	 width="147.276px" height="116.142px" viewBox="61.383 22.971 147.276 116.142"
	 enable-background="new 61.383 22.971 147.276 116.142" xml:space="preserve">
<g id="Layer_1_1_">
	<path fill="#54B247" d="M190.413,54.675c0,0-4.619,9.893-10.905,10.02c0,0-1.793,10.23-9.345,10.357c0,0-2.595,10.356-7.657,9.45
		c0,0,8.206-39.382,17.551-61.531c0,0-9.113,14.407-13.943,16.538c0,0-1.688,10.8-7.53,12.719c0,0,1.118,10.23-5.97,12.488
		c0,0,0.443,10.694-4.619,11.243c0,0,0.442,6.75-2.7,10.02c-1.351-3.038,0.907-7.193,0.907-7.193
		c-3.713-2.595-0.907-9.45-0.907-9.45c-3.607-1.582-0.675-9.218-0.675-9.218c-4.62-3.27-1.351-10.462-1.351-10.462
		c-3.817-2.7-2.468-10.906-2.468-10.906c-3.037-2.594-6.181-15.188-6.181-15.188c-0.337,0.781-1.118,0-1.118,0
		s-2.257,13.605-5.738,15.188c0,0,1.35,8.206-2.468,10.906c0,0,3.27,7.193-1.35,10.462c0,0,2.932,7.53-0.675,9.218
		c0,0,2.805,6.855-0.907,9.45c0,0,2.257,4.155,0.781,7.319c-3.27-3.143-2.806-10.125-2.806-10.125
		c-5.062-0.569-4.62-11.243-4.62-11.243c-7.087-2.257-5.969-12.488-5.969-12.488c-5.97-1.919-7.531-12.719-7.531-12.719
		c-4.831-2.025-15.968-16.538-15.968-16.538c8.543,20.018,15.419,42.419,20.482,61.657c-4.62-0.105-6.982-9.556-6.982-9.556
		c-7.425-0.105-9.345-10.357-9.345-10.357c-6.18-0.105-10.905-10.02-10.905-10.02c-5.294-0.57-18.12-11.918-18.12-11.918
		c18.668,22.718,53.431,88.995,54.907,92.37c1.455,3.375,4.619,3.944,7.868,3.944s7.531-2.932,9.788-2.932
		c1.793,0,7.657,2.932,9.007,2.932c6.181,0,7.763-2.468,8.67-3.944c1.793-2.933,38.707-69.525,57.037-91.906
		C208.406,43.2,195.581,54.105,190.413,54.675z"/>
</g>
<g id="bootle">
</g>
</svg>
