<?xml version="1.0" encoding="utf-8"?>
<!-- Generator: Adobe Illustrator 16.0.0, SVG Export Plug-In . SVG Version: 6.00 Build 0)  -->
<!DOCTYPE svg PUBLIC "-//W3C//DTD SVG 1.1//EN" "http://www.w3.org/Graphics/SVG/1.1/DTD/svg11.dtd">
<svg version="1.1" id="Layer_1" xmlns="http://www.w3.org/2000/svg" xmlns:xlink="http://www.w3.org/1999/xlink" x="0px" y="0px"
	 width="80.895px" height="113.001px" viewBox="94.548 24.513 80.895 113.001"
	 enable-background="new 94.548 24.513 80.895 113.001" xml:space="preserve">
<g id="Layer_1_1_">
</g>
<g id="bootle">
	<g>
		<path fill="#C04233" d="M112.24,80.62c0,0-12.825,2.595-16.77,15.42c-3.944,12.72,4.62,43.095,28.582,41.407
			c19.575-1.351,30.143-16.095,29.932-27.781c-0.569-34.319-30.607-30.037-30.607-30.037s3.375,9.112-0.105,11.243
			c-3.038,1.793-6.855,1.919-8.206-0.443C113.358,87.244,112.24,80.62,112.24,80.62"/>
		<path fill="#C04233" d="M146.222,25.271c-12.487-2.806-17.444,2.7-18.668,8.1c-1.118,4.831-2.805,5.843-2.594,6.075
			c-4.05,4.725-10.02,13.395-10.357,23.962c-0.57,14.513,2.7,23.857,2.932,24.195c0.338,1.013,1.456,1.582,2.468,1.35
			c0.105,0,0.105,0,0.232-0.105c1.118-0.337,1.688-1.582,1.245-2.7c0-0.105-3.143-9.007-2.595-22.612
			c0.337-8.88,5.97-17.107,9.556-21.494c3.375,3.27,9.45,7.425,17.55,6.518c13.057-1.455,22.043-3.607,22.043-3.607
			C167.252,43.706,158.709,28.076,146.222,25.271"/>
		<path fill="#C04233" d="M136.097,70.833l-4.05,4.493c0,0,11.032,0.232,19.47,10.695c9.112,11.243,6.855,25.882,6.855,25.882
			s22.95-6.412,15.63-33.075c-7.319-26.557-29.594-14.512-29.594-14.512s13.605,6.18,7.425,11.707
			C147.678,79.713,136.097,70.833,136.097,70.833"/>
		<path fill="#C04233" d="M147.678,74.081c-0.443,0.105-1.013,0-1.582-0.232c-0.57-0.337-13.163-7.657-16.77-16.305
			c-3.607-8.543-1.919-18.225-1.793-18.562c0.232-1.118,1.35-1.92,2.468-1.688c1.118,0.232,1.919,1.35,1.688,2.468
			c0,0.105-1.582,8.775,1.582,16.2c3.143,7.319,14.955,14.175,15.082,14.28c1.013,0.569,1.35,1.919,0.78,2.932
			C148.689,73.533,148.247,73.976,147.678,74.081"/>
	</g>
</g>
</svg>
