<?xml version="1.0" encoding="utf-8"?>
<!-- Generator: Adobe Illustrator 16.0.0, SVG Export Plug-In . SVG Version: 6.00 Build 0)  -->
<!DOCTYPE svg PUBLIC "-//W3C//DTD SVG 1.1//EN" "http://www.w3.org/Graphics/SVG/1.1/DTD/svg11.dtd">
<svg version="1.1" id="Layer_1" xmlns="http://www.w3.org/2000/svg" xmlns:xlink="http://www.w3.org/1999/xlink" x="0px" y="0px"
	 width="76.594px" height="106.138px" viewBox="96.715 27.928 76.594 106.138"
	 enable-background="new 96.715 27.928 76.594 106.138" xml:space="preserve">
<g id="Layer_1_1_">
</g>
<g id="bootle">
	<g>
		<path fill="#FF4056" d="M135.76,27.928c0,0-5.4,3.48-6.75,7.53c-1.245,4.05-1.456,9.788-1.456,9.788s-5.4,1.118-6.855,5.505
			c-1.455,4.388-2.932,12.931-7.087,19.681c-4.155,6.855-7.319,40.943,8.438,52.544c9.682,7.193,19.469,8.543,25.65,10.568
			c4.155,1.35,7.995-0.105,9.788-2.258c1.793-2.13,7.762-8.774,12.719-17.887c4.493-8.332,4.62-29.131-3.037-41.513
			c-7.657-12.382-15.42-15.082-20.819-21.031c-5.295-5.969-15.968-6.855-15.968-6.855s-1.245-5.737,1.35-7.425
			s7.193-4.282,6.645-5.505C137.658,30.059,135.76,27.928,135.76,27.928"/>
		<path fill="#FF4056" d="M123.715,38.159c3.143-6.518-6.413-12.382-13.605-9.113s-13.395,5.295-13.395,5.295
			s5.737,2.468,10.23,6.982C111.565,45.815,121.12,43.559,123.715,38.159"/>
	</g>
</g>
</svg>
