<?xml version="1.0" encoding="utf-8"?>
<!-- Generator: Adobe Illustrator 16.0.0, SVG Export Plug-In . SVG Version: 6.00 Build 0)  -->
<!DOCTYPE svg PUBLIC "-//W3C//DTD SVG 1.1//EN" "http://www.w3.org/Graphics/SVG/1.1/DTD/svg11.dtd">
<svg version="1.1" id="Layer_1" xmlns="http://www.w3.org/2000/svg" xmlns:xlink="http://www.w3.org/1999/xlink" x="0px" y="0px"
	 width="96.244px" height="99.337px" viewBox="86.878 31.388 96.244 99.337" enable-background="new 86.878 31.388 96.244 99.337"
	 xml:space="preserve">
<g id="Layer_1_1_">
</g>
<g id="bootle">
	<g>
		<path fill="#FFB100" d="M152.24,85.95c-3.938,3.825-12.263,1.8-18.675-4.725s-8.438-14.85-4.612-18.788
			c3.938-3.825,12.263-1.8,18.675,4.725S156.065,82.125,152.24,85.95"/>
		<path fill="#FFB100" d="M163.04,51.862c-12.712-12.825-28.237-20.475-41.625-20.475c-7.087,0-9.562,1.8-14.962,4.387
			c-3.375,1.688-6.862,5.625-6.862,5.4C90.928,50.625,86.878,63.9,86.878,77.85c0,29.25,23.175,52.875,51.638,52.875
			c13.612,0,27.337-4.387,40.162-22.387l0,0C188.353,95.175,181.828,70.65,163.04,51.862 M107.803,41.4
			c3.263-3.262,7.987-4.95,13.726-4.95c11.812,0,26.324,7.312,37.912,19.012c18,18.113,24.075,41.4,13.612,51.75
			c-3.263,3.262-7.987,4.949-13.725,4.949c-11.812,0-26.325-7.312-37.913-19.012c-8.887-8.888-15.074-19.351-17.55-29.363
			C101.503,54.225,102.853,46.237,107.803,41.4"/>
		<path fill="#FFB100" d="M130.641,52.987c-0.788-0.112-2.362-2.362-3.375-5.062c-1.013-2.7-1.237-4.725-0.45-4.612
			s2.25,2.362,3.375,5.062C131.203,51.075,131.428,53.1,130.641,52.987"/>
		<path fill="#FFB100" d="M121.078,54.225c-0.562,0.225-2.925-1.575-5.175-4.163c-2.363-2.587-3.825-4.837-3.263-5.062
			s2.812,1.575,5.175,4.163S121.641,54,121.078,54.225"/>
		<path fill="#FFB100" d="M116.466,60.75c-0.113,0.562-2.7-0.337-5.625-2.138c-3.038-1.8-5.288-3.712-5.176-4.275
			c0.113-0.562,2.7,0.337,5.625,2.138C114.328,58.275,116.578,60.075,116.466,60.75"/>
		<path fill="#FFB100" d="M118.04,70.65c0.338,0.788-1.8,1.013-4.612,0.45c-2.812-0.45-5.399-1.462-5.625-2.25
			c-0.337-0.788,1.8-1.013,4.612-0.45C115.228,68.85,117.815,69.862,118.04,70.65"/>
		<path fill="#FFB100" d="M125.353,81.337c0.676,0.675-0.337,2.025-2.25,2.925c-1.912,0.899-4.05,1.125-4.725,0.337
			c-0.675-0.675,0.338-2.024,2.25-2.925C122.653,80.775,124.79,80.663,125.353,81.337"/>
		<path fill="#FFB100" d="M136.49,90.112c0.9,0.45,1.125,2.588,0.675,4.612c-0.449,2.025-1.574,3.375-2.362,2.812
			c-0.787-0.449-1.125-2.587-0.675-4.612C134.578,90.787,135.703,89.55,136.49,90.112"/>
		<path fill="#FFB100" d="M148.415,94.388c0.788,0.112,2.25,2.475,3.375,5.062c1.013,2.7,1.238,4.725,0.45,4.612
			c-0.787-0.112-2.362-2.362-3.375-5.062S147.628,94.275,148.415,94.388"/>
		<path fill="#FFB100" d="M157.978,93.15c0.562-0.226,2.926,1.574,5.176,4.162c2.362,2.588,3.824,4.838,3.262,5.062
			s-2.925-1.575-5.175-4.162C158.878,95.625,157.415,93.375,157.978,93.15"/>
		<path fill="#FFB100" d="M162.591,86.625c0.112-0.562,2.699,0.338,5.625,2.138c3.037,1.8,5.287,3.712,5.175,4.274
			s-2.7-0.337-5.625-2.137C164.728,89.213,162.478,87.3,162.591,86.625"/>
		<path fill="#FFB100" d="M161.016,76.725c-0.338-0.788,1.8-1.013,4.612-0.45c2.812,0.45,5.4,1.462,5.625,2.25
			c0.338,0.788-1.8,1.013-4.612,0.45C163.828,78.525,161.353,77.513,161.016,76.725"/>
		<path fill="#FFB100" d="M153.703,66.038c-0.675-0.675,0.337-2.025,2.25-2.925c1.912-0.9,4.05-1.012,4.725-0.337
			c0.675,0.675-0.337,2.025-2.25,2.925C156.403,66.6,154.378,66.712,153.703,66.038"/>
		<path fill="#FFB100" d="M142.565,57.375c-0.787-0.45-1.125-2.587-0.675-4.612c0.45-2.025,1.575-3.375,2.475-2.812
			c0.788,0.45,1.125,2.587,0.675,4.612C144.478,56.587,143.353,57.825,142.565,57.375"/>
	</g>
</g>
</svg>
