<?xml version="1.0" encoding="utf-8"?>
<!-- Generator: Adobe Illustrator 16.0.0, SVG Export Plug-In . SVG Version: 6.00 Build 0)  -->
<!DOCTYPE svg PUBLIC "-//W3C//DTD SVG 1.1//EN" "http://www.w3.org/Graphics/SVG/1.1/DTD/svg11.dtd">
<svg version="1.1" id="Layer_1" xmlns="http://www.w3.org/2000/svg" xmlns:xlink="http://www.w3.org/1999/xlink" x="0px" y="0px"
	 width="101.788px" height="90.995px" viewBox="84.112 35.491 101.788 90.995"
	 enable-background="new 84.112 35.491 101.788 90.995" xml:space="preserve">
<g id="Layer_1_1_">
</g>
<g id="bootle">
	<g>
		<path fill="#F27300" d="M106.249,39.213c0,0-16.305,12.593-20.819,43.305c-4.493,30.713,3.944,37.8,3.944,37.8
			s17.782,11.138,48.706,3.48c20.018-4.957,22.718-7.867,22.718-7.867l-22.486-23.267c0,0-8.88,0.78-18.794-1.245
			c-8.332-1.688-10.905-4.155-10.905-4.155s1.012-11.58,4.493-16.537c4.388-6.307,6.413-8.881,6.413-8.881s-5.4-5.737-9.112-12.15
			C107.81,45.077,106.249,39.213,106.249,39.213"/>
		<path fill="#F27300" d="M168.792,69.377c-5.399-4.388-7.868-4.957-7.868-4.957s-1.455-15.082-3.48-22.275
			c-2.024-7.193-2.932-6.645-2.932-6.645s-7.193,2.7-12.593,7.657c-2.595,2.363-4.957,4.957-4.957,4.957s-5.4-3.48-11.812-7.193
			c-6.413-3.712-13.395-4.725-13.395-4.725s5.168,11.812,9.682,17.318c4.493,5.4,7.425,7.868,7.425,7.868
			s-7.193,7.193-10.906,13.837c-3.712,6.645-2.7,8.438-2.7,8.438s6.18,3.27,14.85,3.944c8.669,0.78,12.825,0,12.825,0l23.182,24.194
			c0,0-0.338-10.568-0.338-16.98s-0.231-8.438-0.231-8.438s4.725,1.244,12.149,1.455c7.426,0.232,8.206-1.244,8.206-1.244
			S178.137,77.013,168.792,69.377 M154.174,82.413l-6.855-9.893l-16.326,3.944l8.205-13.605l-8.669-10.694l12.382,5.4l5.4-5.4
			l0.78,9.682l13.605,12.593l-10.357-2.025L154.174,82.413z"/>
	</g>
</g>
</svg>
